<?xml version="1.0" standalone="no"?>
<!DOCTYPE svg PUBLIC "-//W3C//DTD SVG 20010904//EN"
 "http://www.w3.org/TR/2001/REC-SVG-20010904/DTD/svg10.dtd">
<svg version="1.0" xmlns="http://www.w3.org/2000/svg"
 width="1323.000000pt" height="322.000000pt" viewBox="0 0 1323.000000 322.000000"
 preserveAspectRatio="xMidYMid meet">

<g transform="translate(0.000000,322.000000) scale(0.100000,-0.100000)"
fill="#000000" stroke="none">
<path d="M3348 3195 c-324 -44 -621 -188 -845 -408 l-103 -101 0 -1077 0
-1077 59 -54 c238 -221 541 -383 831 -445 130 -28 468 -25 606 5 270 58 536
190 722 357 l62 57 0 521 c0 499 -1 521 -18 497 -9 -14 -229 -235 -487 -491
-516 -512 -509 -506 -617 -497 -29 2 -69 12 -89 22 -20 9 -236 214 -500 475
-512 505 -521 516 -522 625 -1 111 -3 108 507 616 318 318 481 473 513 490 63
33 149 34 213 3 32 -16 183 -160 523 -500 l477 -478 0 517 0 517 -72 62 c-341
293 -801 426 -1260 364z"/>
<path d="M1000 2315 c-98 -99 -193 -184 -215 -195 -22 -11 -57 -36 -79 -55
-21 -19 -41 -35 -45 -35 -3 0 -17 -10 -31 -23 -14 -12 -41 -33 -60 -47 -19
-13 -37 -27 -40 -30 -3 -3 -21 -17 -40 -30 -19 -13 -37 -27 -40 -30 -3 -3 -21
-17 -40 -30 -19 -13 -37 -27 -40 -30 -3 -3 -21 -17 -40 -30 -19 -13 -37 -27
-40 -30 -3 -3 -65 -50 -137 -105 -74 -55 -133 -106 -133 -115 0 -30 49 -84
247 -277 212 -205 200 -199 257 -149 16 15 32 26 35 26 3 0 21 14 40 30 18 17
36 30 40 30 3 0 26 18 51 40 25 22 48 40 51 40 4 0 22 13 40 30 19 16 41 32
51 35 38 13 26 36 -71 138 -53 56 -100 109 -103 118 -12 31 23 77 159 212 173
170 171 170 277 67 l72 -69 177 177 177 177 -168 168 c-92 92 -169 167 -172
167 -3 0 -84 -79 -180 -175z"/>
<path d="M969 1255 c-123 -123 -225 -229 -227 -234 -2 -6 16 -30 40 -55 24
-25 59 -63 78 -86 19 -22 64 -72 100 -110 36 -38 77 -83 92 -101 26 -29 29
-30 50 -16 43 28 153 134 301 290 l147 155 -47 51 c-27 27 -59 64 -73 81 -14
17 -59 67 -100 110 -80 84 -110 119 -110 132 0 28 -52 -17 -251 -217z"/>
</g>
</svg>
