<?xml version="1.0" standalone="no"?>
<!DOCTYPE svg PUBLIC "-//W3C//DTD SVG 20010904//EN"
 "http://www.w3.org/TR/2001/REC-SVG-20010904/DTD/svg10.dtd">
<svg version="1.0" xmlns="http://www.w3.org/2000/svg"
 width="3804.000000pt" height="3804.000000pt" viewBox="0 0 3804.000000 3804.000000"
 preserveAspectRatio="xMidYMid meet">

<g transform="translate(0.000000,3804.000000) scale(0.100000,-0.100000)"
fill="#000000" stroke="none">
<path d="M0 19020 l0 -19020 19020 0 19020 0 0 19020 0 19020 -19020 0 -19020
0 0 -19020z m8970 1846 c0 -2 -12 -11 -27 -20 l-28 -17 24 20 c23 21 31 25 31
17z m-98 -79 c-12 -13 -19 -27 -15 -32 5 -4 3 -5 -3 -2 -15 9 -25 -18 -12 -31
6 -6 6 -12 -1 -16 -6 -4 -11 0 -11 8 0 10 -6 13 -15 10 -11 -5 -13 -10 -5 -19
8 -9 6 -14 -5 -19 -8 -3 -15 -13 -15 -23 0 -15 -2 -16 -10 -3 -7 12 -12 11
-30 -5 -11 -10 -19 -24 -16 -31 3 -7 -1 -15 -9 -18 -10 -3 -12 0 -8 12 6 15 4
15 -10 4 -13 -11 -14 -17 -4 -27 7 -7 14 -9 15 -4 7 19 22 8 22 -15 0 -14 5
-28 10 -31 6 -3 10 -19 10 -36 0 -16 -4 -29 -10 -29 -5 0 -10 -9 -10 -20 0
-11 5 -20 10 -20 7 0 10 -298 10 -875 l0 -875 -25 -6 c-29 -7 -32 -26 -8 -45
10 -8 14 -9 10 -2 -4 6 -3 14 3 18 6 4 8 10 5 15 -3 4 4 10 15 13 23 6 27 -8
5 -17 -8 -3 -14 -9 -13 -13 1 -4 -12 -30 -30 -57 -18 -28 -32 -43 -32 -34 0 9
5 20 10 23 11 7 4 25 -10 25 -5 0 -7 -7 -4 -15 4 -8 2 -15 -3 -15 -5 0 -9 -17
-9 -37 0 -21 -8 -67 -18 -103 -15 -52 -17 -82 -11 -150 3 -47 7 -95 8 -107 1
-11 5 -19 10 -16 4 2 7 -4 7 -14 0 -10 9 -35 20 -56 11 -21 18 -42 15 -48 -4
-5 -3 -8 2 -7 5 2 23 -13 41 -33 31 -35 40 -58 25 -60 -5 0 -18 -2 -29 -3 -17
-2 -21 3 -21 21 0 22 1 23 17 8 14 -13 17 -13 17 -1 0 8 -5 14 -11 13 -6 -1
-10 3 -9 10 2 7 -4 10 -12 7 -9 -4 -15 -1 -15 7 0 9 -3 10 -11 2 -12 -12 -2
-103 12 -103 5 0 9 5 9 10 0 6 5 10 10 10 6 0 10 -11 10 -25 0 -14 5 -25 10
-25 7 0 10 -297 10 -872 -1 -722 -3 -878 -15 -903 -13 -29 -14 -29 -20 -8 -4
13 -11 20 -16 17 -5 -3 -7 -10 -4 -15 7 -11 3 -11 -20 -3 -13 5 -14 8 -3 15 8
5 3 7 -15 5 -15 -1 -26 -7 -25 -12 1 -5 9 -8 16 -6 15 4 12 -20 -4 -25 -5 -1
-346 333 -758 742 -412 410 -754 745 -760 745 -6 0 -87 -76 -181 -170 -94 -94
-178 -170 -188 -170 -11 0 -15 -4 -11 -12 4 -7 3 -8 -4 -4 -7 4 -12 1 -12 -6
0 -10 -3 -9 -10 2 -13 21 5 38 35 33 21 -5 24 -2 20 17 -5 26 -50 70 -71 70
-7 0 -14 5 -14 11 0 5 6 7 13 3 6 -3 -1 4 -16 17 -15 13 -29 31 -30 39 -4 23
-17 41 -27 35 -12 -8 -52 37 -46 51 3 7 -1 20 -9 30 -10 15 -16 16 -28 6 -11
-10 -17 -10 -25 0 -6 7 -11 18 -11 23 -1 6 -4 18 -7 29 -5 14 -8 16 -14 5 -7
-10 -12 -6 -21 14 -6 14 -16 24 -20 21 -8 -5 -14 18 -10 39 1 5 -3 6 -9 2 -5
-3 -10 -2 -10 4 0 14 -57 71 -70 71 -6 0 -8 5 -5 10 3 6 0 10 -7 10 -7 0 -26
17 -42 37 -16 20 -23 33 -15 28 8 -5 5 1 -5 13 -11 12 -25 22 -33 22 -7 0 -13
10 -14 23 0 12 -3 16 -6 10 -6 -16 -33 9 -33 31 0 8 -9 18 -20 21 -18 6 -24
17 -21 38 0 4 -3 7 -9 7 -5 0 -6 8 -3 18 6 15 5 15 -10 3 -22 -17 -34 -7 -17
14 7 9 10 18 6 22 -3 3 -6 1 -6 -5 0 -7 -7 -12 -15 -12 -8 0 -15 -6 -15 -13 0
-19 -20 -36 -36 -30 -8 3 53 72 164 184 97 99 178 183 179 187 8 25 -52 102
-187 238 -85 87 -150 155 -145 152 6 -3 16 0 23 8 7 8 10 14 7 14 -15 0 20 43
48 60 18 11 28 20 23 20 -5 0 115 124 266 275 152 151 280 275 286 275 16 0
21 23 9 45 -10 19 -9 19 10 3 24 -22 40 -24 23 -3 -7 8 -9 15 -5 15 4 0 88
-80 187 -177 99 -98 185 -178 193 -178 11 0 1305 1274 1674 1647 42 43 78 78
80 78 3 0 -5 -10 -17 -23z m4025 -2 c0 -8 -4 -12 -9 -9 -5 3 -6 10 -3 15 9 13
12 11 12 -6z m37 -6 c-3 -5 -10 -7 -15 -3 -5 3 -7 10 -3 15 3 5 10 7 15 3 5
-3 7 -10 3 -15z m30 -7 c3 -5 -1 -9 -9 -9 -8 0 -12 4 -9 9 3 4 7 8 9 8 2 0 6
-4 9 -8z m90 -85 c37 -33 63 -63 60 -69 -4 -6 -2 -8 3 -5 6 4 25 -8 41 -27 17
-19 34 -32 38 -28 4 4 4 -1 1 -11 -4 -10 -3 -16 2 -13 12 7 53 -39 44 -49 -5
-4 -3 -5 3 -2 14 8 86 -77 76 -88 -4 -5 -2 -5 4 -2 12 7 56 -42 145 -163 327
-442 519 -910 606 -1475 28 -187 26 -707 -5 -897 -80 -505 -249 -937 -520
-1333 -99 -145 -133 -186 -145 -178 -6 3 -7 1 -3 -6 10 -15 -102 -144 -116
-134 -6 3 -8 2 -5 -4 8 -13 -82 -115 -96 -106 -5 3 -7 2 -4 -4 3 -5 -12 -27
-33 -48 -33 -32 -42 -37 -52 -26 -11 12 -9 13 7 7 14 -5 17 -4 10 3 -6 6 -21
8 -34 4 -24 -6 -24 -6 -3 -14 12 -5 22 -13 22 -20 0 -6 -7 -8 -16 -5 -9 4 -12
2 -8 -5 8 -13 -65 -75 -84 -71 -9 2 -11 -1 -6 -10 6 -10 4 -10 -9 1 -18 14
-23 26 -8 17 5 -4 12 0 14 6 4 10 8 9 17 -2 10 -13 11 -13 7 0 -2 8 -11 15
-20 15 -8 0 -19 3 -22 7 -4 3 5 5 19 4 31 -4 44 15 40 56 -2 15 1 30 7 33 5 4
9 11 9 16 0 6 -6 7 -12 3 -8 -5 -7 0 2 11 8 10 11 16 5 13 -7 -4 -9 293 -7
885 l3 892 -22 18 c-19 15 -18 22 4 18 4 0 6 5 5 11 -2 7 3 12 10 10 14 -2 17
24 3 33 -6 3 -15 -4 -21 -15 -6 -11 -15 -20 -21 -20 -6 0 9 22 33 50 23 27 44
47 47 45 2 -3 -3 -13 -13 -24 -15 -16 -15 -19 -2 -24 10 -4 13 -1 9 9 -3 7 0
14 6 14 6 0 11 -5 11 -12 0 -6 2 -9 5 -6 3 3 1 17 -5 32 -12 31 -3 56 12 35 7
-11 8 -9 4 4 -3 11 0 31 8 45 41 76 50 118 51 239 1 67 -2 120 -5 118 -10 -6
-22 54 -13 68 3 5 1 7 -5 3 -6 -3 -13 6 -17 24 -4 16 -11 30 -17 30 -6 0 -5 6
2 16 11 12 11 15 -1 12 -9 -2 -13 4 -11 14 2 12 -2 16 -12 12 -19 -7 -33 35
-15 47 10 6 10 9 2 9 -6 0 -15 -5 -18 -11 -10 -16 -45 20 -38 39 5 11 2 14
-10 9 -12 -4 -14 -2 -10 10 5 12 2 15 -9 10 -10 -3 -25 5 -39 21 -14 15 -16
20 -5 12 23 -18 43 -21 71 -10 l24 9 1 907 c0 499 3 911 6 916 3 5 2 8 -3 7
-19 -3 -33 2 -33 12 0 5 5 7 10 4 6 -3 10 4 10 15 0 15 5 20 14 17 8 -3 20 1
26 9 8 9 9 14 2 14 -6 0 -13 -6 -16 -12 -3 -8 -5 -7 -3 2 2 19 -62 82 -76 73
-6 -3 -7 -1 -3 6 11 17 16 14 90 -52z m-74 18 c-10 -12 -10 -15 0 -15 8 0 11
-3 7 -6 -3 -3 -10 -3 -16 0 -12 8 -3 36 11 36 6 0 5 -6 -2 -15z m-4216 -76
c-3 -6 0 -15 7 -20 9 -6 10 -9 2 -9 -15 0 -26 17 -18 30 3 6 8 10 11 10 3 0 2
-5 -2 -11z m-2961 -339 c32 -5 82 -20 110 -33 61 -28 180 -133 170 -151 -3 -6
-2 -8 2 -3 10 9 55 -31 55 -48 0 -7 -12 -12 -26 -12 -17 0 -22 2 -13 8 7 4 17
5 23 2 5 -3 6 -1 2 5 -9 15 -46 -3 -46 -21 0 -7 -18 -26 -39 -43 -22 -16 -35
-32 -29 -35 6 -4 1 -12 -13 -19 -41 -22 -80 -58 -66 -63 7 -2 1 -9 -13 -17
-42 -22 -81 -58 -67 -63 7 -2 1 -9 -13 -17 -42 -22 -81 -58 -67 -63 7 -2 1 -9
-13 -17 -42 -22 -81 -58 -67 -63 7 -2 1 -9 -13 -17 -42 -22 -81 -58 -67 -63 7
-2 1 -9 -13 -17 -40 -21 -81 -58 -68 -62 6 -2 -4 -14 -23 -26 -75 -48 -89 -59
-82 -65 3 -4 13 -1 21 6 13 11 14 9 2 -10 -18 -28 -59 -50 -68 -38 -11 16 -53
37 -60 30 -4 -3 -1 -10 6 -14 25 -15 -38 -101 -73 -101 -9 0 -13 -4 -10 -10 3
-5 -1 -10 -10 -10 -9 0 -35 -18 -57 -40 -23 -22 -49 -40 -59 -40 -18 0 -79
-54 -79 -70 0 -6 -6 -10 -13 -10 -7 0 -23 -9 -35 -20 -12 -11 -25 -20 -30 -20
-4 0 -23 -16 -40 -36 -18 -20 -32 -31 -32 -25 0 7 -16 -4 -35 -23 -19 -20 -35
-33 -35 -29 0 3 -8 -1 -18 -10 -10 -10 -21 -15 -23 -13 -2 2 -13 -6 -24 -17
-11 -11 -14 -17 -7 -13 6 4 12 5 12 2 0 -3 -10 -10 -21 -17 -17 -9 -20 -8 -14
3 4 7 -10 -3 -31 -23 -75 -69 -88 -79 -101 -79 -8 0 -12 -4 -9 -9 3 -5 -7 -14
-23 -21 -16 -6 -37 -20 -47 -31 -9 -10 -25 -19 -34 -19 -9 0 -27 -12 -41 -27
l-24 -28 27 24 c16 14 30 22 33 19 6 -6 -52 -49 -70 -52 -7 -1 -34 -20 -59
-41 -26 -22 -56 -44 -67 -49 -10 -5 -19 -16 -20 -25 0 -10 -2 -11 -5 -4 -4 8
-18 0 -39 -21 -19 -19 -36 -32 -39 -29 -2 3 -10 -4 -17 -15 -7 -11 -18 -18
-24 -16 -7 3 -18 -3 -26 -13 -12 -16 -12 -17 1 -8 9 6 4 0 -10 -12 -14 -13
-29 -23 -35 -23 -5 0 -24 -14 -42 -30 -18 -17 -36 -30 -41 -30 -16 0 -72 -57
-64 -65 4 -4 2 -5 -5 -1 -7 4 -18 -2 -25 -14 -7 -11 -21 -20 -30 -20 -10 0
-18 -5 -18 -11 0 -5 -5 -7 -10 -4 -6 4 -7 12 -4 18 4 7 -5 1 -19 -12 -15 -14
-27 -20 -28 -15 0 5 -3 18 -6 29 -33 132 -13 257 58 360 15 22 393 405 841
852 865 864 836 837 963 869 63 15 95 16 168 4z m376 -274 c-3 -3 -11 5 -18
17 -13 21 -12 21 5 5 10 -10 16 -20 13 -22z m10441 -461 l0 -145 -552 -2 -553
-3 -3 -452 -2 -453 495 0 495 0 0 -145 0 -145 -492 -2 -493 -3 0 -465 0 -465
553 -3 552 -2 0 -145 0 -145 -730 0 -730 0 0 1360 0 1360 730 0 730 0 0 -145z
m-11255 -235 c3 -6 -1 -7 -9 -4 -18 7 -21 14 -7 14 6 0 13 -4 16 -10z m12835
-349 l0 -178 -114 -7 c-134 -8 -207 -25 -296 -68 -87 -42 -158 -115 -203 -208
-70 -142 -70 -140 -74 -872 l-4 -658 -175 0 -174 0 0 1068 0 1067 175 -3 175
-3 2 -167 3 -167 27 45 c115 194 353 326 591 329 l67 1 0 -179z m1549 149
c183 -45 364 -160 474 -302 l62 -80 3 186 2 186 180 0 180 0 -2 -1062 -3
-1063 -177 -3 -178 -2 -2 196 -3 197 -32 -50 c-69 -107 -199 -216 -340 -287
-195 -98 -470 -119 -700 -55 -241 67 -451 233 -579 456 -99 173 -142 333 -151
558 -11 292 43 509 177 713 155 236 392 387 676 432 94 14 316 4 413 -20z
m2381 15 c220 -33 389 -125 499 -272 71 -94 131 -259 131 -360 l0 -23 -178 0
-178 0 -2 30 c-3 43 -36 125 -68 172 -39 56 -126 115 -209 141 -101 32 -271
31 -371 -1 -93 -31 -160 -82 -197 -152 -26 -49 -28 -63 -25 -132 3 -66 7 -82
33 -120 71 -100 164 -144 531 -252 332 -97 441 -150 552 -265 95 -98 140 -231
129 -384 -15 -212 -140 -383 -352 -482 -113 -53 -182 -72 -315 -86 -296 -30
-595 56 -779 226 -106 99 -181 243 -197 378 l-7 57 183 -2 183 -3 13 -53 c19
-75 39 -109 99 -168 94 -94 211 -136 385 -137 160 -1 264 31 352 111 58 52 88
121 88 203 0 153 -96 226 -418 315 -407 113 -556 175 -665 274 -113 104 -163
207 -173 360 -29 418 414 708 956 625z m2344 -15 c95 -21 214 -69 304 -122 80
-47 230 -198 280 -283 42 -72 94 -195 107 -252 l7 -33 -189 0 -188 0 -40 88
c-70 153 -200 260 -376 308 -89 25 -290 25 -379 0 -330 -90 -509 -400 -487
-845 14 -272 98 -465 264 -602 108 -89 244 -132 418 -132 127 1 207 18 310 67
122 58 199 142 260 283 l32 72 186 0 c103 0 187 -4 187 -8 0 -23 -37 -126 -67
-186 -140 -278 -370 -451 -679 -511 -120 -23 -340 -23 -457 0 -376 73 -663
336 -770 706 -48 164 -61 425 -32 607 75 461 390 785 833 858 118 20 356 12
476 -15z m2317 -3 c204 -53 400 -187 499 -343 l30 -48 0 192 0 192 180 0 180
0 0 -1065 0 -1065 -180 0 -180 0 0 197 0 196 -32 -49 c-48 -74 -164 -184 -251
-238 -92 -57 -193 -98 -302 -122 -96 -20 -312 -23 -400 -5 -244 50 -444 173
-589 361 -216 279 -289 691 -191 1075 99 390 405 675 795 740 125 21 319 13
441 -18z m2745 14 c325 -67 538 -273 626 -603 22 -81 22 -98 25 -815 l4 -733
-175 0 -175 0 -3 688 c-3 658 -4 690 -24 757 -33 114 -73 184 -144 256 -113
114 -231 159 -425 159 -132 0 -214 -18 -306 -66 -128 -68 -221 -184 -268 -336
-35 -115 -41 -245 -41 -864 l0 -594 -175 0 -175 0 0 1065 0 1065 175 0 175 0
0 -146 0 -146 73 78 c117 126 251 201 427 238 97 21 297 20 406 -3z m-20565
-244 c-10 -9 -11 -8 -5 6 3 10 9 15 12 12 3 -3 0 -11 -7 -18z m3900 -10 c-10
-9 -11 -8 -5 6 3 10 9 15 12 12 3 -3 0 -11 -7 -18z m76 -49 c4 -7 8 -23 8 -35
1 -21 0 -21 -16 -7 -10 9 -23 13 -30 8 -8 -4 -10 -3 -5 5 4 6 16 9 27 6 24 -8
25 3 2 21 -10 7 -13 14 -6 14 6 0 15 -6 20 -12z m-37 -2 c0 -2 -7 -7 -16 -10
-8 -3 -12 -2 -9 4 6 10 25 14 25 6z m-6837 -69 c3 -8 -1 -14 -8 -14 -7 0 -11
6 -8 14 3 7 6 13 8 13 2 0 5 -6 8 -13z m2773 -8 c3 -5 0 -8 -7 -7 -12 3 -14
-1 -18 -34 -2 -18 -12 -2 -15 24 -2 17 2 24 15 25 10 1 21 -3 25 -8z m-5020
-596 c-3 -4 -6 0 -6 7 0 9 -5 7 -15 -6 -18 -23 -20 -11 -3 16 11 17 14 17 21
4 5 -9 6 -18 3 -21z m5001 -233 c32 -34 32 -36 11 -37 -15 -2 -18 1 -10 6 9 5
6 14 -13 31 -14 13 -25 28 -25 33 0 6 1 8 3 6 1 -2 17 -20 34 -39z m-3393 -49
c-2 -3 -12 3 -22 13 -16 17 -16 18 5 5 12 -7 20 -15 17 -18z m7524 -1 c1 -16
-2 -30 -7 -30 -5 0 -7 10 -3 22 4 16 2 19 -9 13 -12 -8 -12 -6 0 8 17 22 16
22 19 -13z m-7513 -20 c-3 -6 1 -7 9 -4 18 7 19 4 10 -21 -5 -13 -8 -14 -15
-3 -6 9 -9 9 -9 1 0 -19 20 -26 26 -9 3 9 11 16 16 16 6 0 8 -7 5 -14 -4 -9
-1 -13 6 -10 7 2 40 -23 72 -56 33 -33 79 -70 103 -81 24 -12 42 -23 40 -24
-2 -2 -121 -123 -265 -268 -145 -145 -263 -268 -263 -272 0 -5 8 -1 18 7 38
33 50 30 73 -20 12 -26 37 -59 55 -72 18 -14 34 -31 34 -37 0 -7 4 -13 9 -13
4 0 24 -20 43 -45 19 -24 38 -42 42 -38 3 3 6 1 6 -6 0 -6 21 -33 47 -59 26
-26 45 -47 43 -48 -3 0 25 -34 62 -75 37 -41 80 -89 96 -106 16 -18 34 -33 41
-33 7 0 10 -4 7 -8 -2 -4 18 -29 45 -56 27 -26 46 -52 43 -57 -3 -6 13 -17 35
-26 38 -15 40 -17 22 -30 -11 -7 -27 -10 -37 -6 -11 4 -15 3 -10 -5 14 -23
-120 -38 -200 -22 -135 27 -149 38 -540 432 -524 526 -523 525 -499 525 7 0
14 -3 13 -6 -2 -19 4 -24 12 -11 8 12 14 13 41 3 31 -12 31 -12 14 7 -15 16
-15 20 -4 20 8 0 20 -5 26 -11 8 -8 18 0 38 26 21 26 30 33 36 23 6 -9 9 -6 9
10 0 12 8 26 17 29 9 4 24 14 33 22 39 37 71 61 83 61 6 1 30 19 52 40 26 27
48 40 66 40 19 0 28 6 32 21 4 16 11 20 24 15 9 -4 14 -4 11 0 -9 8 9 44 22
44 5 0 23 13 41 29 18 17 37 29 43 28 6 -1 10 4 9 11 -2 7 7 12 22 12 14 0 25
6 25 13 1 15 139 127 158 127 7 0 10 -4 7 -10z m3471 -22 l29 -33 -32 29 c-31
28 -38 36 -30 36 2 0 16 -15 33 -32z m4020 -13 c17 -16 14 -18 -10 -9 -9 3
-16 10 -16 15 0 13 9 11 26 -6z m-3940 -67 l29 -33 -32 29 c-31 28 -38 36 -30
36 2 0 16 -15 33 -32z m89 -88 c10 -11 16 -20 13 -20 -3 0 -13 9 -23 20 -10
11 -16 20 -13 20 3 0 13 -9 23 -20z m-3195 -1230 c18 -12 2 -12 -25 0 -13 6
-15 9 -5 9 8 0 22 -4 30 -9z m21168 -296 c41 -28 18 -104 -31 -104 -53 0 -77
75 -35 104 12 9 27 16 33 16 6 0 21 -7 33 -16z m-6498 -354 l0 -350 -45 0 -45
0 0 42 0 42 -32 -32 c-84 -81 -225 -84 -316 -7 -109 94 -121 290 -24 397 49
55 102 78 180 78 70 0 148 -32 176 -72 15 -21 16 -13 16 115 l0 137 45 0 45 0
0 -350z m6270 0 l0 -350 -40 0 -40 0 0 350 0 350 40 0 40 0 0 -350z m-9250
275 l0 -35 -90 0 -90 0 0 -295 0 -295 -45 0 -45 0 0 295 0 295 -90 0 -90 0 0
35 0 35 225 0 225 0 0 -35z m5337 -228 l173 -262 0 263 0 262 45 0 45 0 0
-330 0 -330 -44 0 c-52 0 -31 -24 -216 256 -132 199 -181 268 -179 249 1 -5 1
-121 0 -257 l-1 -248 -40 0 -40 0 0 330 0 330 43 0 42 0 172 -263z m2313 252
c84 -18 145 -83 153 -165 9 -84 -36 -163 -110 -196 -29 -13 -41 -23 -36 -31 4
-7 40 -66 81 -132 l73 -120 -53 -3 c-29 -2 -54 0 -55 5 -2 4 -37 65 -78 136
l-76 127 -49 0 -50 0 0 -135 0 -135 -45 0 -45 0 0 330 0 330 120 0 c65 0 142
-5 170 -11z m2968 -226 l-3 -238 -37 -3 -38 -3 0 104 c0 57 -3 165 -7 240 l-6
137 47 0 46 0 -2 -237z m-19477 202 c1 -11 1 -24 0 -28 -1 -5 4 -5 11 -1 17
11 68 12 62 2 -4 -5 -13 -7 -21 -4 -31 12 -34 -7 -3 -20 22 -10 30 -19 26 -29
-3 -10 5 -20 24 -30 35 -18 43 -19 34 -2 -4 7 -3 9 2 4 5 -5 10 -13 10 -18 1
-5 2 -11 3 -14 0 -3 1 -8 2 -12 0 -5 6 -15 12 -23 10 -13 10 -13 -5 -2 -10 8
-16 19 -15 25 1 7 -6 12 -16 12 -10 0 -21 5 -25 11 -4 6 -18 17 -32 24 -15 8
-20 15 -12 18 6 2 12 8 12 14 0 5 -8 7 -18 4 -25 -8 -93 49 -85 72 6 15 5 15
-10 3 -9 -7 -17 -9 -17 -4 0 16 12 23 36 21 16 -2 24 -9 25 -23z m12839 -40
l0 -65 65 0 65 0 0 -40 0 -40 -65 0 -65 0 0 -169 c0 -197 2 -201 81 -201 l49
0 0 -35 0 -35 -67 0 c-86 0 -127 22 -142 77 -6 21 -11 112 -11 203 l0 165 -32
0 c-31 0 -33 2 -33 35 0 32 3 35 33 38 l32 3 0 65 0 64 45 0 45 0 0 -65z
m5760 0 l0 -64 67 -3 67 -3 1 -35 0 -35 -67 -3 -68 -3 0 -166 c0 -196 3 -203
82 -203 41 0 48 -3 48 -19 0 -11 3 -26 6 -35 5 -14 -4 -16 -64 -16 -145 0
-155 17 -162 260 l-5 185 -30 0 c-28 0 -30 3 -30 35 0 32 3 35 33 38 l32 3 0
65 0 64 45 0 45 0 0 -65z m-7355 -100 c0 -37 -1 -39 -45 -50 -112 -29 -120
-48 -120 -270 l0 -165 -45 0 -45 0 0 260 0 260 45 0 45 0 0 -36 0 -36 35 31
c20 17 48 33 63 37 15 3 32 7 37 9 22 7 30 -3 30 -40z m-1929 11 c157 -73 192
-306 65 -433 -46 -47 -98 -67 -181 -71 -67 -3 -81 -1 -130 25 -183 96 -182
385 2 477 71 35 170 36 244 2z m290 -2 c19 -74 113 -408 114 -404 1 3 29 100
64 215 l62 210 45 0 44 0 58 -200 c32 -110 61 -207 64 -215 3 -8 27 66 54 165
76 283 64 255 109 255 22 0 40 -3 40 -7 0 -5 -35 -122 -77 -260 l-78 -253 -47
0 -47 0 -26 88 c-14 48 -42 139 -62 202 l-35 115 -54 -175 c-29 -96 -56 -187
-59 -202 -6 -26 -10 -28 -56 -28 -27 0 -49 2 -49 4 0 3 -119 385 -154 494 -7
21 -5 22 38 22 41 0 46 -3 52 -26z m1057 10 c18 -9 47 -30 65 -47 l32 -31 0
48 0 47 41 -3 41 -3 -1 -245 c0 -135 -1 -251 -1 -257 0 -8 -15 -13 -40 -13
l-40 0 0 41 0 41 -37 -32 c-50 -44 -92 -60 -158 -60 -95 0 -172 48 -217 135
-26 49 -35 162 -19 222 16 58 67 122 120 150 55 28 164 32 214 7z m1614 -10
c38 -28 73 -81 73 -110 0 -21 -5 -24 -39 -24 -34 0 -40 4 -51 30 -23 55 -107
78 -169 45 -53 -27 -47 -90 11 -118 18 -8 66 -25 106 -37 97 -28 142 -68 149
-130 14 -127 -163 -205 -304 -135 -55 28 -80 57 -90 105 -5 30 -5 30 39 30 39
0 45 -3 55 -30 22 -57 126 -77 188 -36 19 12 25 25 25 51 0 44 -17 55 -135 91
-72 21 -98 34 -129 65 -37 38 -38 41 -34 94 5 60 22 86 78 116 50 27 186 23
227 -7z m1136 11 c91 -38 147 -120 155 -226 13 -178 -109 -299 -287 -287 -76
6 -111 21 -163 73 -46 47 -68 110 -68 194 2 164 96 261 256 261 41 0 87 -6
107 -15z m1518 1 c91 -38 140 -112 142 -214 l2 -67 -209 -3 -208 -2 7 -28 c20
-83 93 -137 177 -129 55 5 93 27 116 68 15 25 23 29 64 29 l48 0 -11 -27 c-33
-87 -122 -143 -228 -143 -109 1 -182 43 -227 132 -71 139 -18 321 111 379 49
23 168 25 216 5z m319 -103 c17 -65 44 -163 60 -218 l28 -100 30 100 c17 55
46 152 65 215 l33 115 38 3 c21 2 42 0 46 -5 5 -4 34 -96 65 -203 30 -107 58
-202 61 -210 3 -8 28 66 54 165 77 283 65 255 110 255 22 0 40 -3 40 -7 0 -5
-35 -122 -77 -260 l-78 -253 -47 0 -47 0 -26 88 c-15 48 -43 139 -62 202 l-36
115 -21 -70 c-12 -38 -40 -130 -61 -202 l-40 -133 -47 0 c-44 0 -47 2 -57 33
-8 27 -131 418 -147 470 -5 14 1 17 39 17 l45 0 32 -117z m1878 101 c88 -36
141 -120 142 -221 l0 -63 -205 0 c-200 0 -205 -1 -205 -20 0 -31 25 -74 60
-103 66 -56 191 -40 232 29 18 30 25 34 64 34 24 0 44 -5 44 -10 0 -44 -88
-133 -147 -149 -49 -14 -127 -14 -178 0 -57 15 -137 100 -154 162 -29 101 0
237 61 294 63 59 202 82 286 47z m577 -3 c22 -10 49 -28 60 -41 l20 -22 5 38
c5 38 6 39 48 42 l42 3 0 -260 0 -261 -45 0 -45 0 0 40 0 39 -25 -25 c-66 -65
-180 -82 -271 -40 -55 25 -93 67 -120 132 -22 51 -22 175 0 226 23 53 74 108
121 129 54 25 157 25 210 0z m643 -243 l2 -258 -45 0 -45 0 0 261 0 260 43 -3
42 -3 3 -257z m532 240 c5 -13 43 -108 83 -212 l73 -188 81 208 80 209 42 3
c29 2 41 -1 41 -10 -1 -7 -69 -179 -153 -383 l-152 -370 -43 -3 c-23 -2 -42 1
-42 6 0 5 22 62 48 127 l49 117 -98 239 c-127 311 -120 279 -64 279 38 0 47
-4 55 -22z m-14625 -38 c3 -5 1 -10 -4 -10 -6 0 -11 5 -11 10 0 6 2 10 4 10 3
0 8 -4 11 -10z m-4029 -42 c16 -18 19 -24 7 -14 -13 11 -23 16 -23 11 0 -4 -7
-2 -15 5 -8 7 -12 16 -9 21 7 12 7 13 40 -23z m4004 28 c0 -2 -8 -10 -17 -17
-16 -13 -17 -12 -4 4 13 16 21 21 21 13z m-39 -33 c7 -10 9 -15 5 -11 -5 4
-15 3 -22 -3 -11 -9 -13 2 -5 29 2 6 10 1 22 -15z m-3766 -141 c-3 -3 -11 0
-18 7 -9 10 -8 11 6 5 10 -3 15 -9 12 -12z m19055 -182 c11 -11 20 -29 20 -40
0 -11 -9 -29 -20 -40 -11 -11 -29 -20 -40 -20 -11 0 -29 9 -40 20 -11 11 -20
29 -20 40 0 11 9 29 20 40 11 11 29 20 40 20 11 0 29 -9 40 -20z"/>
<path d="M8780 20695 c-8 -9 -8 -15 -2 -15 12 0 26 19 19 26 -2 2 -10 -2 -17
-11z"/>
<path d="M8697 20553 c-4 -3 -7 -11 -7 -17 0 -6 5 -5 12 2 6 6 9 14 7 17 -3 3
-9 2 -12 -2z"/>
<path d="M8623 20536 c-9 -11 -9 -15 0 -19 7 -3 14 3 14 14 2 22 2 22 -14 5z"/>
<path d="M8706 20521 c-4 -7 -5 -15 -2 -18 9 -9 19 4 14 18 -4 11 -6 11 -12 0z"/>
<path d="M8604 20497 c3 -10 6 -25 6 -33 0 -9 5 -12 10 -9 14 9 13 18 -6 41
-14 17 -15 17 -10 1z"/>
<path d="M8700 20460 c0 -11 5 -20 10 -20 6 0 10 9 10 20 0 11 -4 20 -10 20
-5 0 -10 -9 -10 -20z"/>
<path d="M8545 20451 c-3 -5 -2 -12 3 -15 5 -3 9 1 9 9 0 17 -3 19 -12 6z"/>
<path d="M8655 18589 c-4 -6 -5 -12 -2 -15 2 -3 7 2 10 11 7 17 1 20 -8 4z"/>
<path d="M8640 18542 c0 -4 4 -13 9 -20 7 -11 9 -11 14 1 3 9 -1 18 -9 21 -8
3 -14 2 -14 -2z"/>
<path d="M8641 18484 c0 -11 3 -14 6 -6 3 7 2 16 -1 19 -3 4 -6 -2 -5 -13z"/>
<path d="M8656 18074 c-4 -14 -5 -28 -3 -31 3 -2 8 8 11 23 4 14 5 28 3 31 -3
2 -8 -8 -11 -23z"/>
<path d="M8681 18083 c-1 -6 -4 -20 -7 -30 -5 -17 -5 -17 6 0 6 10 9 23 6 30
-3 9 -5 9 -5 0z"/>
<path d="M6130 18050 c-9 -6 -10 -10 -3 -10 6 0 15 5 18 10 8 12 4 12 -15 0z"/>
<path d="M6066 17983 c-6 -14 -5 -15 5 -6 7 7 10 15 7 18 -3 3 -9 -2 -12 -12z"/>
<path d="M8700 17880 c0 -5 5 -10 11 -10 5 0 7 5 4 10 -3 6 -8 10 -11 10 -2 0
-4 -4 -4 -10z"/>
<path d="M6889 17373 c-13 -16 -12 -17 4 -4 9 7 17 15 17 17 0 8 -8 3 -21 -13z"/>
<path d="M6809 17318 c-4 -19 -9 -51 -6 -47 1 2 8 11 15 21 9 11 10 18 2 23
-5 3 -10 5 -11 3z"/>
<path d="M8450 16286 c7 -7 13 -7 20 0 6 6 3 10 -10 10 -13 0 -16 -4 -10 -10z"/>
<path d="M8618 16193 c20 -8 14 -25 -7 -18 -11 3 -22 1 -26 -4 -4 -7 1 -8 11
-4 14 5 16 3 10 -13 -6 -17 -5 -17 15 2 21 22 19 45 -4 43 -9 0 -9 -2 1 -6z"/>
<path d="M8622 16134 c-7 -8 -8 -14 -3 -14 10 0 25 19 20 25 -2 1 -10 -3 -17
-11z"/>
<path d="M13065 20640 c-3 -5 -2 -10 4 -10 5 0 13 5 16 10 3 6 2 10 -4 10 -5
0 -13 -4 -16 -10z"/>
<path d="M13145 20560 c-8 -13 3 -30 18 -30 8 0 7 3 -2 9 -7 5 -10 14 -7 20 4
6 5 11 2 11 -3 0 -8 -4 -11 -10z"/>
<path d="M13030 18749 c0 -6 -9 -8 -22 -3 -23 6 -23 6 1 -15 13 -11 24 -21 25
-21 1 0 2 11 2 25 1 14 0 25 -2 25 -2 0 -4 -5 -4 -11z"/>
<path d="M13022 18686 c7 -8 15 -12 17 -11 5 6 -10 25 -20 25 -5 0 -4 -6 3
-14z"/>
<path d="M13072 18660 c-7 -11 -8 -20 -3 -20 9 0 24 30 18 36 -1 2 -8 -6 -15
-16z"/>
<path d="M13044 15996 c4 -11 -1 -28 -11 -40 -17 -21 -17 -21 6 0 19 18 21 25
11 40 -11 18 -11 18 -6 0z"/>
<path d="M19410 18826 c-268 -57 -466 -251 -541 -532 -29 -106 -32 -354 -6
-458 49 -195 157 -364 293 -458 59 -40 169 -88 241 -104 113 -25 293 -16 398
20 240 82 402 268 467 534 30 123 29 322 -1 447 -64 264 -233 453 -476 531
-99 32 -273 41 -375 20z"/>
<path d="M26435 18824 c-246 -51 -455 -253 -525 -507 -65 -237 -32 -528 81
-720 50 -86 162 -199 241 -245 104 -62 188 -84 333 -89 155 -6 230 8 350 67
239 116 385 356 402 660 15 270 -59 484 -226 651 -62 62 -94 85 -171 122 -154
74 -320 95 -485 61z"/>
<path d="M4645 17280 c-3 -6 1 -10 9 -10 8 0 20 -9 26 -20 6 -11 16 -20 23
-19 9 0 9 2 0 6 -7 2 -13 10 -13 16 0 17 -38 39 -45 27z"/>
<path d="M5230 17100 c0 -5 5 -10 10 -10 6 0 10 5 10 10 0 6 -4 10 -10 10 -5
0 -10 -4 -10 -10z"/>
<path d="M5860 16400 c8 -5 22 -9 30 -9 10 0 8 3 -5 9 -27 12 -43 12 -25 0z"/>
<path d="M20236 15870 c-136 -43 -156 -273 -30 -351 43 -26 125 -29 169 -6
117 60 128 250 21 332 -40 31 -109 41 -160 25z"/>
<path d="M25030 15896 l0 -126 91 0 c94 0 140 15 155 49 30 73 20 138 -27 171
-23 17 -50 23 -124 27 l-95 6 0 -127z"/>
<path d="M17854 15869 c-115 -33 -152 -233 -60 -325 89 -89 252 -47 285 73 47
166 -71 297 -225 252z"/>
<path d="M19220 15857 c-108 -57 -124 -241 -28 -322 63 -53 153 -53 218 1 103
87 84 271 -34 325 -55 25 -104 24 -156 -4z"/>
<path d="M21954 15861 c-52 -24 -80 -60 -93 -120 -18 -83 12 -183 64 -217 58
-38 150 -36 204 4 14 10 36 36 49 58 19 33 22 51 20 110 -4 85 -31 134 -94
164 -50 25 -97 25 -150 1z"/>
<path d="M23475 15866 c-16 -7 -38 -22 -47 -32 -23 -26 -50 -92 -43 -104 4 -6
75 -10 166 -10 177 0 172 -3 143 70 -30 75 -137 112 -219 76z"/>
<path d="M25656 15857 c-41 -23 -76 -76 -76 -114 0 -23 0 -23 160 -23 l160 0
0 29 c0 38 -38 92 -80 113 -49 25 -116 23 -164 -5z"/>
<path d="M26264 15861 c-149 -68 -127 -318 31 -360 105 -27 204 44 213 154 6
77 -5 120 -41 162 -56 63 -126 79 -203 44z"/>
</g>
</svg>
