<?xml version="1.0" encoding="utf-8"?>
<!-- Generator: Adobe Illustrator 25.4.1, SVG Export Plug-In . SVG Version: 6.00 Build 0)  -->
<svg version="1.1" id="Layer_1" xmlns="http://www.w3.org/2000/svg" xmlns:xlink="http://www.w3.org/1999/xlink" x="0px" y="0px"
	 viewBox="0 0 3250 1080" style="enable-background:new 0 0 3250 1080;" xml:space="preserve">
<style type="text/css">
	.st0{fill:url(#SVGID_1_);}
	.st1{fill:none;stroke:url(#SVGID_00000058566154989790971940000011861991188506619817_);stroke-width:30;stroke-miterlimit:10;}
	.st2{fill:url(#SVGID_00000134227883361404395550000014813021136854326692_);}
	.st3{fill:none;stroke:url(#SVGID_00000176758581916972269890000002335087099422530737_);stroke-width:30;stroke-miterlimit:10;}
	.st4{fill:none;stroke:url(#SVGID_00000128445806432286508810000014317685574071993241_);stroke-width:30;stroke-miterlimit:10;}
	.st5{fill:url(#SVGID_00000080189592306718487890000017953048811379318682_);}
	.st6{fill:url(#SVGID_00000033370512075790838210000003978945099151510421_);}
	.st7{fill:url(#SVGID_00000030485777532578270670000001727845441710699938_);}
	.st8{fill:url(#SVGID_00000079468874792998488930000009287819703478519741_);}
	.st9{fill:url(#SVGID_00000178905282432730903150000012152149497110481303_);}
	.st10{fill:url(#SVGID_00000049906302837978638280000018012371119582670764_);}
	.st11{fill:url(#SVGID_00000103955459336801334940000015346497104201657247_);}
	.st12{fill:url(#SVGID_00000170261004386527708500000015742194261562712748_);}
</style>
<g>
	<g>
		<g>
			<g>
				<g>
					<linearGradient id="SVGID_1_" gradientUnits="userSpaceOnUse" x1="57.7689" y1="494.2893" x2="690.5055" y2="494.2893">
						<stop  offset="0.014" style="stop-color:#28B8ED"/>
						<stop  offset="0.0674" style="stop-color:#2EB3EE"/>
						<stop  offset="0.1394" style="stop-color:#3FA4EF"/>
						<stop  offset="0.2219" style="stop-color:#5B8CF2"/>
						<stop  offset="0.3122" style="stop-color:#836BF5"/>
						<stop  offset="0.409" style="stop-color:#B540FA"/>
						<stop  offset="0.5084" style="stop-color:#F10DFF"/>
						<stop  offset="0.9821" style="stop-color:#6A0DBF"/>
					</linearGradient>
					<path class="st0" d="M340.36,829.44c-36.75-21.56-73.63-42.9-110.68-63.96c-18.52-10.53-37.09-20.98-55.68-31.39l-55.87-31.06
						l-13.99-7.72c-4.89-2.72-9.49-6.04-13.62-9.86c-8.27-7.64-14.69-17.34-18.5-28.05c-1.92-5.35-3.15-10.96-3.7-16.63
						c-0.27-2.82-0.37-5.79-0.41-8.36l-0.16-7.99l-0.6-31.96l-1.07-63.91l-0.8-63.91l-0.62-63.91l-0.31-31.96
						c-0.01-2.71-0.1-5.16,0.02-8.32c0.02-0.75,0.03-1.5,0.07-2.25l0.2-2.25l0.21-2.25c0.09-0.75,0.22-1.49,0.33-2.23
						c0.9-5.95,2.53-11.8,4.84-17.37c4.58-11.16,12.01-21.15,21.33-28.88c0.58-0.48,1.16-0.98,1.75-1.45l1.83-1.35l1.84-1.34
						c0.62-0.44,1.27-0.82,1.91-1.24c2.68-1.74,4.83-2.94,7.15-4.33l13.76-8.12l55.04-32.49l110.2-64.79l27.55-16.2l13.77-8.1
						l6.89-4.05c2.11-1.26,5.03-2.91,7.8-4.27c11.24-5.51,23.87-8.12,36.4-7.7c12.54,0.4,24.99,3.91,35.94,10.11
						c74.12,42.06,148.52,83.63,222.83,125.36l13.91,7.87c5.64,3.22,10.97,7.15,15.71,11.65c9.51,8.99,16.85,20.32,21.08,32.76
						c2.13,6.21,3.47,12.71,4.02,19.26c0.27,3.21,0.33,6.84,0.33,9.23l0.02,7.99l0.07,31.96c0.03,42.61-0.2,85.22-0.63,127.83
						l-0.41,31.96l-0.56,31.96c-0.17,10.65-0.47,21.3-0.7,31.96c-0.08,2.73-0.07,5.07-0.28,8.5c-0.05,0.8-0.07,1.59-0.15,2.39
						l-0.29,2.38l-0.3,2.37c-0.12,0.79-0.29,1.57-0.43,2.35c-1.16,6.26-3.07,12.37-5.68,18.14c-5.17,11.58-13.33,21.67-23.22,29.32
						c-0.62,0.48-1.23,0.97-1.86,1.43l-1.94,1.32l-1.94,1.31c-0.65,0.43-1.34,0.8-2.01,1.2c-2.85,1.7-5.01,2.78-7.4,4.06
						l-14.12,7.51l-56.54,29.89l-56.53,29.92c-18.82,10.02-37.61,20.08-56.34,30.25c-9.36,5.1-18.74,10.15-28.07,15.3l-14.01,7.7
						l-7,3.85c-2.28,1.29-4.76,2.61-7.25,3.77c-10.01,4.66-21.14,6.64-32.05,6.09C360.51,838.2,349.75,834.97,340.36,829.44z
						 M341.86,826.85c9.09,5.09,19.37,7.95,29.73,8.24c10.35,0.31,20.75-1.98,29.94-6.59c4.51-2.28,9.09-5.23,13.64-7.95l13.67-8.28
						c9.13-5.5,18.19-11.1,27.29-16.65c18.17-11.14,36.28-22.38,54.36-33.67l54.18-33.99l54.16-34.02l13.56-8.47
						c4.88-3,8.19-5.16,11.56-8.15c6.6-5.82,11.72-13.19,14.8-21.27c1.55-4.04,2.59-8.24,3.13-12.49c0.55-4.36,0.47-8.08,0.31-13.87
						c-0.23-10.65-0.53-21.3-0.7-31.96l-0.56-31.96l-0.41-31.96c-0.43-42.61-0.66-85.22-0.63-127.83l0.07-31.96
						c-0.02-5.19,0.13-11.21-0.12-14.73c-0.29-4.06-1.06-8.1-2.34-11.98c-2.55-7.76-6.95-14.94-12.81-20.68
						c-2.93-2.88-6.19-5.39-9.75-7.53l-13.77-8.11c-73.29-43.49-146.5-87.13-219.98-130.3c-7.53-4.41-16.12-6.99-24.87-7.42
						c-8.74-0.43-17.63,1.23-25.59,4.98c-3.61,1.69-8.66,4.71-13.2,7.25l-13.9,7.88l-27.8,15.76l-111.21,63.04l-55.66,31.42
						l-13.92,7.86c-4.94,2.75-8.58,4.84-12.23,7.77c-7.18,5.73-13.02,13.21-16.69,21.7c-1.85,4.24-3.18,8.7-3.97,13.26
						c-0.82,4.63-0.9,8.94-0.92,14.56l-0.31,31.96l-0.62,63.91l-0.8,63.91l-1.07,63.91l-0.6,31.96c-0.06,5.28-0.34,10.82-0.09,15.59
						c0.28,4.94,1.16,9.86,2.66,14.6c2.97,9.49,8.28,18.29,15.38,25.39c3.55,3.55,7.53,6.68,11.85,9.31l13.68,8.26l54.83,32.86
						c18.31,10.9,36.64,21.76,55.02,32.53C267.89,784.53,304.81,805.8,341.86,826.85z"/>
				</g>
			</g>
		</g>
	</g>
</g>
<linearGradient id="SVGID_00000146494516885555414490000018278878347242141611_" gradientUnits="userSpaceOnUse" x1="-219.7758" y1="55.0494" x2="-219.7758" y2="55.0494" gradientTransform="matrix(0.745 -0.0901 0.1044 0.863 355.9284 204.289)">
	<stop  offset="0.014" style="stop-color:#28B8ED"/>
	<stop  offset="0.0674" style="stop-color:#2EB3EE"/>
	<stop  offset="0.1394" style="stop-color:#3FA4EF"/>
	<stop  offset="0.2219" style="stop-color:#5B8CF2"/>
	<stop  offset="0.3122" style="stop-color:#836BF5"/>
	<stop  offset="0.409" style="stop-color:#B540FA"/>
	<stop  offset="0.5084" style="stop-color:#F10DFF"/>
	<stop  offset="0.9821" style="stop-color:#6A0DBF"/>
</linearGradient>
<path style="fill:none;stroke:url(#SVGID_00000146494516885555414490000018278878347242141611_);stroke-width:30;stroke-miterlimit:10;" d="
	M197.95,271.6"/>
<g>
	
		<linearGradient id="SVGID_00000109024079136361621510000006858246787456071814_" gradientUnits="userSpaceOnUse" x1="200.2291" y1="701.8636" x2="200.2291" y2="210.8955">
		<stop  offset="0.014" style="stop-color:#28B8ED"/>
		<stop  offset="0.0674" style="stop-color:#2EB3EE"/>
		<stop  offset="0.1394" style="stop-color:#3FA4EF"/>
		<stop  offset="0.2219" style="stop-color:#5B8CF2"/>
		<stop  offset="0.3122" style="stop-color:#836BF5"/>
		<stop  offset="0.409" style="stop-color:#B540FA"/>
		<stop  offset="0.5084" style="stop-color:#F10DFF"/>
		<stop  offset="0.9821" style="stop-color:#6A0DBF"/>
	</linearGradient>
	<path style="fill:url(#SVGID_00000109024079136361621510000006858246787456071814_);" d="M182.92,687.57
		c25.34-16.35,50.74-32.59,76.22-48.71l38.23-24.15l9.57-6.01l2.4-1.5c0.8-0.5,1.63-1.01,2.28-1.45c1.39-0.89,2.72-1.88,4.03-2.89
		c5.18-4.09,9.65-9.01,13.12-14.53c3.49-5.5,5.97-11.58,7.4-17.83c0.68-3.14,1.16-6.31,1.34-9.49c0.09-1.59,0.12-3.19,0.07-4.78
		l-0.16-5.57l-1.32-45.18l-0.72-22.59c-0.26-7.53-0.62-15.06-0.93-22.59l-0.51-11.3l-0.26-5.65l-0.03-0.71l-0.04-0.56l-0.08-1.11
		c-0.08-0.73-0.14-1.47-0.25-2.2c-0.82-5.83-2.44-11.5-5.03-16.69c-2.5-5.23-5.84-9.99-9.76-14.2c-2-2.07-4.08-4.06-6.38-5.8
		c-1.13-0.89-2.31-1.73-3.5-2.54l-0.94-0.6c-0.32-0.2-0.59-0.39-1.04-0.65l-2.42-1.45l-19.33-11.7l-19.27-11.81
		c-12.86-7.84-25.63-15.85-38.44-23.78c-12.76-8.02-25.54-16-38.25-24.11c-25.44-16.17-50.77-32.54-75.92-49.2
		c-25.13-16.69-50.17-33.55-74.78-51.13l1.52-2.59c27.38,12.85,54.33,26.43,81.18,40.16c26.84,13.76,53.51,27.82,80.05,42.09
		c13.29,7.1,26.5,14.34,39.74,21.54c13.18,7.28,26.41,14.49,39.54,21.87l19.72,11.01l19.66,11.12l5.32,3.06
		c1.97,1.22,3.94,2.46,5.8,3.85c3.75,2.75,7.27,5.83,10.45,9.22c6.41,6.75,11.53,14.71,15.09,23.27c3.52,8.58,5.57,17.74,5.87,26.93
		c0.05,1.15,0.05,2.29,0.06,3.44l-0.03,1.72l-0.02,0.85l-0.03,0.71l-0.26,5.65l-0.51,11.3c-0.32,7.53-0.67,15.06-0.93,22.59
		l-0.72,22.59l-1.32,45.18l-0.17,5.73c-0.07,2.17-0.24,4.34-0.49,6.5c-0.5,4.32-1.4,8.58-2.65,12.72
		c-2.53,8.27-6.43,16.08-11.53,22.95c-5.07,6.9-11.33,12.85-18.34,17.59c-1.77,1.17-3.55,2.3-5.41,3.31
		c-0.96,0.54-1.77,0.96-2.6,1.41l-2.5,1.32l-9.99,5.29l-40.03,21.03c-26.7,14-53.46,27.88-80.29,41.65L182.92,687.57z"/>
</g>
<linearGradient id="SVGID_00000083779874908214127930000017941050387457409419_" gradientUnits="userSpaceOnUse" x1="3281.0742" y1="1815.7917" x2="3281.0742" y2="1815.7917" gradientTransform="matrix(0 1 -1 0 2386.9292 -2601.99)">
	<stop  offset="0.014" style="stop-color:#28B8ED"/>
	<stop  offset="0.0674" style="stop-color:#2EB3EE"/>
	<stop  offset="0.1394" style="stop-color:#3FA4EF"/>
	<stop  offset="0.2219" style="stop-color:#5B8CF2"/>
	<stop  offset="0.3122" style="stop-color:#836BF5"/>
	<stop  offset="0.409" style="stop-color:#B540FA"/>
	<stop  offset="0.5084" style="stop-color:#F10DFF"/>
	<stop  offset="0.9821" style="stop-color:#6A0DBF"/>
</linearGradient>
<path style="fill:none;stroke:url(#SVGID_00000083779874908214127930000017941050387457409419_);stroke-width:30;stroke-miterlimit:10;" d="
	M571.14,679.08"/>
<linearGradient id="SVGID_00000116213823157675823210000016032151594193755312_" gradientUnits="userSpaceOnUse" x1="2921.3557" y1="1815.7917" x2="2921.3557" y2="1815.7917" gradientTransform="matrix(0 1 -1 0 2386.9292 -2601.99)">
	<stop  offset="0.014" style="stop-color:#28B8ED"/>
	<stop  offset="0.0674" style="stop-color:#2EB3EE"/>
	<stop  offset="0.1394" style="stop-color:#3FA4EF"/>
	<stop  offset="0.2219" style="stop-color:#5B8CF2"/>
	<stop  offset="0.3122" style="stop-color:#836BF5"/>
	<stop  offset="0.409" style="stop-color:#B540FA"/>
	<stop  offset="0.5084" style="stop-color:#F10DFF"/>
	<stop  offset="0.9821" style="stop-color:#6A0DBF"/>
</linearGradient>
<path style="fill:none;stroke:url(#SVGID_00000116213823157675823210000016032151594193755312_);stroke-width:30;stroke-miterlimit:10;" d="
	M571.14,319.37"/>
<g>
	
		<linearGradient id="SVGID_00000005248109692827846630000001758208902370520251_" gradientUnits="userSpaceOnUse" x1="553.3365" y1="296.5862" x2="553.3365" y2="782.9799">
		<stop  offset="0.014" style="stop-color:#28B8ED"/>
		<stop  offset="0.0674" style="stop-color:#2EB3EE"/>
		<stop  offset="0.1394" style="stop-color:#3FA4EF"/>
		<stop  offset="0.2219" style="stop-color:#5B8CF2"/>
		<stop  offset="0.3122" style="stop-color:#836BF5"/>
		<stop  offset="0.409" style="stop-color:#B540FA"/>
		<stop  offset="0.5084" style="stop-color:#F10DFF"/>
		<stop  offset="0.9821" style="stop-color:#6A0DBF"/>
	</linearGradient>
	<path style="fill:url(#SVGID_00000005248109692827846630000001758208902370520251_);" d="M571.89,310.88
		c-25.18,16.25-50.43,32.39-75.74,48.41l-37.99,24l-9.51,5.97l-4.75,2.97c-1.38,0.9-2.75,1.81-4.04,2.83
		c-5.23,3.97-9.72,8.83-13.28,14.23c-3.54,5.43-6.16,11.4-7.66,17.61c-0.76,3.1-1.26,6.25-1.51,9.41
		c-0.29,3.23-0.16,6.07-0.04,10.07l1.31,44.9c0.43,14.97,0.93,29.93,1.62,44.9l0.51,11.23l0.25,5.61l0.13,2.8
		c0.07,0.73,0.09,1.47,0.18,2.2c0.29,2.92,0.84,5.8,1.6,8.6c0.72,2.81,1.69,5.54,2.89,8.17c2.36,5.26,5.5,10.12,9.27,14.41
		c0.96,1.06,1.92,2.11,2.97,3.09c1.01,1.01,2.07,1.97,3.17,2.88c1.1,0.92,2.24,1.77,3.4,2.63c0.58,0.42,1.18,0.82,1.77,1.22
		l0.9,0.57c0.16,0.1,0.27,0.18,0.47,0.3l0.6,0.36c12.89,7.6,25.74,15.28,38.56,23.02c25.66,15.42,51.19,31.07,76.6,46.92
		c25.42,15.85,50.71,31.9,75.84,48.26c25.11,16.39,50.12,32.94,74.71,50.22l-1.49,2.6c-27.34-12.5-54.25-25.74-81.08-39.14
		c-26.81-13.43-53.44-27.16-79.95-41.11c-26.52-13.94-52.92-28.08-79.19-42.45c-13.15-7.16-26.27-14.37-39.34-21.67l-2.85-1.63
		c-0.99-0.6-1.97-1.2-2.94-1.83c-1.93-1.26-3.81-2.62-5.61-4.06c-3.64-2.86-6.98-6.09-10.03-9.56c-3.06-3.47-5.76-7.25-8.15-11.2
		c-2.33-3.99-4.4-8.13-5.97-12.46c-3.23-8.62-4.91-17.8-4.92-26.92c-0.02-1.14,0.03-2.28,0.05-3.41l0.13-2.81l0.25-5.61l0.51-11.23
		c0.68-14.97,1.19-29.93,1.62-44.9l1.31-44.9c0.06-1.9,0.09-3.61,0.2-5.9c0.12-2.16,0.32-4.31,0.62-6.45
		c0.28-2.14,0.7-4.26,1.16-6.36c0.51-2.09,1.06-4.17,1.74-6.21c2.64-8.18,6.69-15.84,11.84-22.6c5.17-6.74,11.45-12.59,18.5-17.17
		c1.75-1.16,3.57-2.21,5.41-3.22l4.97-2.64l9.93-5.25l39.78-20.9c26.53-13.91,53.13-27.71,79.8-41.39L571.89,310.88z"/>
</g>
<g>
	<g>
		
			<linearGradient id="SVGID_00000183250688645881123030000014721565597857194140_" gradientUnits="userSpaceOnUse" x1="833.3979" y1="483.8391" x2="3210.9619" y2="483.8391">
			<stop  offset="0.014" style="stop-color:#28B8ED"/>
			<stop  offset="0.0674" style="stop-color:#2EB3EE"/>
			<stop  offset="0.1394" style="stop-color:#3FA4EF"/>
			<stop  offset="0.2219" style="stop-color:#5B8CF2"/>
			<stop  offset="0.3122" style="stop-color:#836BF5"/>
			<stop  offset="0.409" style="stop-color:#B540FA"/>
			<stop  offset="0.5084" style="stop-color:#F10DFF"/>
			<stop  offset="0.9821" style="stop-color:#6A0DBF"/>
		</linearGradient>
		<path style="fill:url(#SVGID_00000183250688645881123030000014721565597857194140_);" d="M833.4,709.37V250.39h257.2v88.86H948.65
			v93.85h141.94v88.86H948.65v94.43h141.94v92.97H833.4z"/>
		
			<linearGradient id="SVGID_00000019669418375973204120000009527335696609939646_" gradientUnits="userSpaceOnUse" x1="833.3979" y1="483.8391" x2="3210.9619" y2="483.8391">
			<stop  offset="0.014" style="stop-color:#28B8ED"/>
			<stop  offset="0.0674" style="stop-color:#2EB3EE"/>
			<stop  offset="0.1394" style="stop-color:#3FA4EF"/>
			<stop  offset="0.2219" style="stop-color:#5B8CF2"/>
			<stop  offset="0.3122" style="stop-color:#836BF5"/>
			<stop  offset="0.409" style="stop-color:#B540FA"/>
			<stop  offset="0.5084" style="stop-color:#F10DFF"/>
			<stop  offset="0.9821" style="stop-color:#6A0DBF"/>
		</linearGradient>
		<path style="fill:url(#SVGID_00000019669418375973204120000009527335696609939646_);" d="M1182.39,709.37v-322.6h102.06v58.95
			c8.99-22.09,20.57-38.42,34.75-48.98c14.17-10.56,31.62-15.84,52.35-15.84c3.32,0,5.76,0.05,7.33,0.15
			c1.56,0.1,3.12,0.25,4.69,0.44v111.15c-7.62-1.56-13.88-2.69-18.77-3.37c-4.89-0.68-9.09-1.03-12.61-1.03
			c-23.46,0-40.13,7.04-50,21.12c-9.88,14.08-14.81,38.52-14.81,73.32v126.69H1182.39z"/>
		
			<linearGradient id="SVGID_00000137123867437759772290000018440775505305419654_" gradientUnits="userSpaceOnUse" x1="833.3979" y1="483.8391" x2="3210.9619" y2="483.8391">
			<stop  offset="0.014" style="stop-color:#28B8ED"/>
			<stop  offset="0.0674" style="stop-color:#2EB3EE"/>
			<stop  offset="0.1394" style="stop-color:#3FA4EF"/>
			<stop  offset="0.2219" style="stop-color:#5B8CF2"/>
			<stop  offset="0.3122" style="stop-color:#836BF5"/>
			<stop  offset="0.409" style="stop-color:#B540FA"/>
			<stop  offset="0.5084" style="stop-color:#F10DFF"/>
			<stop  offset="0.9821" style="stop-color:#6A0DBF"/>
		</linearGradient>
		<path style="fill:url(#SVGID_00000137123867437759772290000018440775505305419654_);" d="M1661.01,709.37v-43.99
			c-6.06,15.84-16.52,28.01-31.38,36.51c-14.86,8.5-33.04,12.76-54.55,12.76c-21.12,0-41.16-4.11-60.12-12.32
			c-18.97-8.21-35.78-20.04-50.44-35.49c-14.08-15.05-24.78-32.7-32.11-52.94c-7.33-20.24-11-42.28-11-66.13
			c0-24.83,3.27-46.87,9.82-66.13c6.55-19.25,16.67-36.41,30.35-51.47c14.66-16.03,31.48-28.25,50.44-36.66
			c18.96-8.4,39-12.61,60.12-12.61c21.31,0,39.74,4.06,55.28,12.17c15.54,8.12,27.71,20.09,36.51,35.93v-42.23h100.89v322.6H1661.01
			z M1595.61,634.88c19.16,0,35.34-8.26,48.54-24.78c13.2-16.52,19.8-37.29,19.8-62.32c0-25.02-6.6-45.8-19.8-62.32
			c-13.2-16.52-29.38-24.78-48.54-24.78c-19.55,0-35.78,8.17-48.68,24.49c-12.9,16.33-19.36,37.2-19.36,62.61
			c0,25.22,6.5,46.04,19.5,62.47C1560.08,626.66,1576.26,634.88,1595.61,634.88z"/>
		
			<linearGradient id="SVGID_00000021091233740348013100000009206024539941484975_" gradientUnits="userSpaceOnUse" x1="833.3979" y1="483.8391" x2="3210.9619" y2="483.8391">
			<stop  offset="0.014" style="stop-color:#28B8ED"/>
			<stop  offset="0.0674" style="stop-color:#2EB3EE"/>
			<stop  offset="0.1394" style="stop-color:#3FA4EF"/>
			<stop  offset="0.2219" style="stop-color:#5B8CF2"/>
			<stop  offset="0.3122" style="stop-color:#836BF5"/>
			<stop  offset="0.409" style="stop-color:#B540FA"/>
			<stop  offset="0.5084" style="stop-color:#F10DFF"/>
			<stop  offset="0.9821" style="stop-color:#6A0DBF"/>
		</linearGradient>
		<path style="fill:url(#SVGID_00000021091233740348013100000009206024539941484975_);" d="M1929.65,612.59v3.23
			c0,10.17,2.83,17.99,8.5,23.46c5.67,5.48,13.78,8.21,24.34,8.21c8.99,0,16.37-2.3,22.14-6.89c5.76-4.59,8.65-10.51,8.65-17.74
			c0-12.12-14.47-23.85-43.4-35.19c-2.15-0.78-3.91-1.47-5.28-2.05c-1.96-0.78-4.99-1.95-9.09-3.52
			c-22.88-8.8-40.67-17.4-53.38-25.81c-11.14-7.23-19.85-17.2-26.1-29.91c-6.26-12.71-9.38-26.78-9.38-42.23
			c0-32.45,10.21-58.07,30.65-76.84c20.43-18.77,48.44-28.15,84.02-28.15c35.78,0,64.23,8.85,85.34,26.54
			c21.12,17.7,32.16,41.79,33.14,72.29l-85.34,0.29c-0.78-10.16-3.77-17.94-8.95-23.32c-5.18-5.38-12.27-8.06-21.26-8.06
			c-9.58,0-17.16,2.1-22.73,6.31c-5.57,4.21-8.36,9.93-8.36,17.16c0,11.93,14.56,23.07,43.7,33.43c9.38,3.33,16.81,5.97,22.29,7.92
			c32.45,12.51,54.99,26.1,67.6,40.76c12.61,14.66,18.92,33.92,18.92,57.78c0,33.43-10.8,59.63-32.41,78.6
			c-21.61,18.97-51.67,28.45-90.18,28.45c-38.91,0-68.77-8.8-89.59-26.39c-20.82-17.6-32.02-43.7-33.58-78.3H1929.65z"/>
		
			<linearGradient id="SVGID_00000103970898407177248690000001518792343113747890_" gradientUnits="userSpaceOnUse" x1="833.3979" y1="483.8391" x2="3210.9619" y2="483.8391">
			<stop  offset="0.014" style="stop-color:#28B8ED"/>
			<stop  offset="0.0674" style="stop-color:#2EB3EE"/>
			<stop  offset="0.1394" style="stop-color:#3FA4EF"/>
			<stop  offset="0.2219" style="stop-color:#5B8CF2"/>
			<stop  offset="0.3122" style="stop-color:#836BF5"/>
			<stop  offset="0.409" style="stop-color:#B540FA"/>
			<stop  offset="0.5084" style="stop-color:#F10DFF"/>
			<stop  offset="0.9821" style="stop-color:#6A0DBF"/>
		</linearGradient>
		<path style="fill:url(#SVGID_00000103970898407177248690000001518792343113747890_);" d="M2446.69,661.86
			c-18.58,18.97-38.76,32.95-60.56,41.94c-21.8,8.99-46.19,13.49-73.17,13.49c-51.81,0-93.7-15.54-125.67-46.63
			s-47.95-71.85-47.95-122.29c0-50.44,15.98-91.25,47.95-122.44c31.97-31.18,73.85-46.78,125.67-46.78
			c25.61,0,48.88,3.91,69.8,11.73c20.92,7.82,40.08,19.65,57.48,35.49l-62.47,69.21c-8.02-9.19-17.06-16.18-27.13-20.97
			c-10.07-4.79-20.48-7.19-31.23-7.19c-21.12,0-38.71,7.62-52.79,22.88c-14.08,15.25-21.12,34.61-21.12,58.07
			s6.99,42.77,20.97,57.92c13.98,15.15,31.62,22.73,52.94,22.73c12.9,0,24.83-3.23,35.78-9.68c10.95-6.45,20.04-15.44,27.27-26.98
			L2446.69,661.86z"/>
		
			<linearGradient id="SVGID_00000029743930089819274680000010109308012805168026_" gradientUnits="userSpaceOnUse" x1="833.3979" y1="483.8391" x2="3210.9619" y2="483.8391">
			<stop  offset="0.014" style="stop-color:#28B8ED"/>
			<stop  offset="0.0674" style="stop-color:#2EB3EE"/>
			<stop  offset="0.1394" style="stop-color:#3FA4EF"/>
			<stop  offset="0.2219" style="stop-color:#5B8CF2"/>
			<stop  offset="0.3122" style="stop-color:#836BF5"/>
			<stop  offset="0.409" style="stop-color:#B540FA"/>
			<stop  offset="0.5084" style="stop-color:#F10DFF"/>
			<stop  offset="0.9821" style="stop-color:#6A0DBF"/>
		</linearGradient>
		<path style="fill:url(#SVGID_00000029743930089819274680000010109308012805168026_);" d="M2723.83,709.37v-43.99
			c-6.06,15.84-16.52,28.01-31.38,36.51c-14.86,8.5-33.04,12.76-54.55,12.76c-21.12,0-41.16-4.11-60.12-12.32
			c-18.97-8.21-35.78-20.04-50.44-35.49c-14.08-15.05-24.78-32.7-32.11-52.94c-7.33-20.24-11-42.28-11-66.13
			c0-24.83,3.27-46.87,9.82-66.13c6.55-19.25,16.67-36.41,30.35-51.47c14.66-16.03,31.48-28.25,50.44-36.66
			c18.96-8.4,39-12.61,60.12-12.61c21.31,0,39.74,4.06,55.28,12.17c15.54,8.12,27.71,20.09,36.51,35.93v-42.23h100.89v322.6H2723.83
			z M2658.44,634.88c19.16,0,35.34-8.26,48.54-24.78c13.2-16.52,19.8-37.29,19.8-62.32c0-25.02-6.6-45.8-19.8-62.32
			c-13.2-16.52-29.38-24.78-48.54-24.78c-19.55,0-35.78,8.17-48.68,24.49c-12.9,16.33-19.36,37.2-19.36,62.61
			c0,25.22,6.5,46.04,19.5,62.47C2622.9,626.66,2639.08,634.88,2658.44,634.88z"/>
		
			<linearGradient id="SVGID_00000067234324050828002150000012528728368033838981_" gradientUnits="userSpaceOnUse" x1="833.3979" y1="483.8391" x2="3210.9619" y2="483.8391">
			<stop  offset="0.014" style="stop-color:#28B8ED"/>
			<stop  offset="0.0674" style="stop-color:#2EB3EE"/>
			<stop  offset="0.1394" style="stop-color:#3FA4EF"/>
			<stop  offset="0.2219" style="stop-color:#5B8CF2"/>
			<stop  offset="0.3122" style="stop-color:#836BF5"/>
			<stop  offset="0.409" style="stop-color:#B540FA"/>
			<stop  offset="0.5084" style="stop-color:#F10DFF"/>
			<stop  offset="0.9821" style="stop-color:#6A0DBF"/>
		</linearGradient>
		<path style="fill:url(#SVGID_00000067234324050828002150000012528728368033838981_);" d="M2916.81,709.37v-322.6h100.3v49.27
			c12.71-18.77,27.03-32.55,42.96-41.35c15.93-8.8,34.36-13.2,55.28-13.2c30.11,0,53.57,9.49,70.39,28.45
			c16.81,18.97,25.22,45.46,25.22,79.48v219.95h-104.99V520.21c0-17.6-3.28-30.5-9.82-38.71c-6.55-8.21-16.77-12.32-30.65-12.32
			c-14.27,0-25.12,5.09-32.55,15.25c-7.43,10.17-11.14,25.13-11.14,44.87v180.07H2916.81z"/>
	</g>
</g>
<text transform="matrix(1 0 0 1 439.2275 -786.4556)" style="font-family:'MyriadPro-Regular'; font-size:12px;">Lorem ipsum</text>
</svg>
